<svg width="83" height="20" xmlns="http://www.w3.org/2000/svg" xmlns:xlink="http://www.w3.org/1999/xlink"><defs><path d="M8.21 9.125l-.423.449a.288.288 0 0 1-.424 0l-.424-.449-.851-.9a.33.33 0 0 1 0-.45l.424-.448a.288.288 0 0 1 .424 0l.637.675 1.489-1.576a.288.288 0 0 1 .424 0l.424.449c.12.124.12.325.003.449L8.21 9.125zM7.9 1.333c3.737 0 6.767 2.985 6.767 6.667s-3.03 6.667-6.767 6.667c-3.155 0-5.802-2.124-6.554-5a.238.238 0 0 1-.013-.08.32.32 0 0 1 .323-.318h2.729a.323.323 0 0 1 .297.197A3.552 3.552 0 0 0 7.9 11.491c1.955 0 3.543-1.562 3.543-3.491 0-1.926-1.585-3.49-3.543-3.49-1.426 0-2.654.83-3.218 2.024l-.006.012a.323.323 0 0 1-.291.185H1.656a.32.32 0 0 1-.323-.317c0-.028.007-.056.013-.08.752-2.877 3.402-5 6.554-5z" id="a"/></defs><g fill="none" fill-rule="evenodd"><path d="M4 0h76a3 3 0 0 1 3 3v14a3 3 0 0 1-3 3H4a4 4 0 0 1-4-4V4a4 4 0 0 1 4-4z" fill="#3d4852"/><g transform="translate(5 2)"><path d="M0 0h16v16H0z"/><mask id="b" fill="#fff"><use xlink:href="#a"/></mask><use fill="#FDFDFD" xlink:href="#a"/>
<g mask="url(#b)" fill="#FFF">
  <path d="M0 0h16v16H0z"/>
</g>
</g>
</g>
  <text stroke="#000000" transform="matrix(0.8499876856803894,0,0,0.8499876856803894,4.751171267591417,0.750061571598053) " xml:space="preserve" text-anchor="middle" font-family="Sans-serif" font-size="12" id="svg_10" y="15" x="55" stroke-width="0" fill="#ffffff">UNKNOWN</text>
</svg>